# xmcd
#
# Track frame offsets: 
#        150
#        22160
#        44710
#        68007
#        90412
#        111245
#        132795
#        159037
#
# Disc length: 2392 seconds
#
# Revision: 1
# Processed by: cddbd v1.5.2PL0 Copyright (c) Steve Scherf et al.
# Submitted via: ExactAudioCopy v0.99pb5
#
DISCID=61095608
DTITLE=Salsa - Willie Gonzalez - Hacia Un Nuevo Camino
DYEAR=1995
DGENRE=Salsa
TTITLE0=Pobre Tonto
TTITLE1=Como Te Atreves
TTITLE2=Quiero Recuperarte
TTITLE3=Perdoname Amor
TTITLE4=Enamorado De Ti Estoy
TTITLE5=Dame Una Oportunidad
TTITLE6=Tan Solo
TTITLE7=Dejame Decirte
EXTD=YEAR: 1995
EXTT0=
EXTT1=
EXTT2=
EXTT3=
EXTT4=
EXTT5=
EXTT6=
EXTT7=
PLAYORDER=
